<?xml version="1.0" encoding="UTF-8" standalone="no"?>
<!DOCTYPE svg PUBLIC "-//W3C//DTD SVG 1.1//EN" "http://www.w3.org/Graphics/SVG/1.1/DTD/svg11.dtd">
<svg width="100%" height="100%" viewBox="0 0 240 570" version="1.1" xmlns="http://www.w3.org/2000/svg" xmlns:xlink="http://www.w3.org/1999/xlink" xml:space="preserve" xmlns:serif="http://www.serif.com/" style="fill-rule:evenodd;clip-rule:evenodd;stroke-linejoin:round;stroke-miterlimit:2;">
    <g transform="matrix(-1.83697e-16,1,-1,-1.83697e-16,240.179,0.000125037)">
        <path d="M325.884,117.033C335.774,117.873 388.122,111.159 408.648,107.694C418.372,106.044 434.216,101.521 442.628,103.149C454.352,105.472 469.524,106.144 478.359,104.865C483.724,104.058 508.468,101.519 517.518,105.152C522.265,107.053 546.586,110.537 546.586,110.537C569.499,119.614 568.372,114.491 568.372,114.491C571.82,111.681 568.643,106.868 568.643,106.868C570.98,103.201 568.087,100.662 568.087,100.662C570.692,97.515 567.767,93.846 567.767,93.846C569.82,89.892 566.035,86.225 566.035,86.225C567.179,83.954 565.734,83.399 565.734,83.399C565.297,76.585 543.495,87.201 543.495,87.201C523.914,89.743 513.015,84.678 513.015,84.678C463.828,68.089 450.775,67.246 432.238,73.878C426.887,75.745 424.768,76.218 422.444,75.359C417.082,73.372 395.515,74.82 386.951,72.397C370.433,67.722 328.544,63.11 308.999,60.706C282.672,57.476 247.372,72.148 247.372,72.148C233.006,75.361 181.824,70.65 181.824,70.65C192.059,64.072 210.126,64.323 210.126,64.323C229.075,65.367 258.035,49.013 258.035,49.013C270.003,41.155 281.357,38.179 282.199,38.179C285.647,38.179 293.993,38.934 293.993,38.934L301.261,38.633C303.112,38.497 309.485,37.456 312.566,37.624C331.522,38.851 327.956,35.839 327.956,35.839C327.956,33.297 312.701,30.504 312.701,30.504C316.635,30.504 328.412,31.465 332.854,29.343C338.153,26.804 331.945,24.936 330.699,24.903C306.563,24.232 312.886,22.781 312.886,22.781C332.467,21.369 336.89,19.634 335.36,16.523C334.235,14.166 311.861,16.321 311.861,16.321C325.152,12.285 327.268,9.223 327.268,9.223C331.945,2.562 319.027,6.681 316.469,7.607C302.877,12.536 298.167,12.688 298.167,12.688C310.38,6.529 309.927,1.887 309.927,1.887C308.01,-4.119 290.716,7.137 282.431,13.732C278.21,17.098 272.558,21.438 269.201,22.698C263.516,24.751 245.239,26.301 245.239,26.301C223.671,26.923 214.303,32.256 214.303,32.256C199.712,41.374 172.492,43.089 172.492,43.089L126.536,43.493C95.19,46.69 94.963,69.791 94.963,69.791C91.488,93.141 83.946,96.391 83.946,96.391C76.829,101.336 63.188,98.51 63.188,98.51C59.851,94.407 50.991,92.824 50.991,92.824C45.767,86.01 38.123,86.344 38.206,89.491C38.272,92.017 36.181,91.445 36.181,91.445C1.77,87.184 0.013,117.737 0.013,117.737L0.013,122.401C0.013,122.401 1.77,152.969 36.173,148.714C36.173,148.714 38.267,148.142 38.198,150.689C38.115,153.828 45.759,154.121 50.983,147.332C50.983,147.332 59.84,145.752 63.179,141.646C63.179,141.646 76.821,138.819 83.938,143.765C83.938,143.765 91.479,147.003 94.955,170.364C94.955,170.364 95.181,193.505 126.528,196.652L172.484,197.088C172.484,197.088 199.703,198.771 214.295,207.925C214.295,207.925 223.666,213.233 245.231,213.846C245.231,213.846 263.508,215.402 269.193,217.446C272.533,218.692 278.185,223.03 282.423,226.423C290.692,233.076 307.949,244.258 309.919,238.276C309.919,238.276 310.372,233.61 298.159,227.476C298.159,227.476 302.836,227.603 316.461,232.524C318.986,233.491 331.904,237.605 327.26,230.941C327.26,230.941 325.141,227.854 311.853,223.842C311.853,223.842 334.227,225.995 335.351,223.599C336.885,220.469 332.459,218.761 312.878,217.349C312.878,217.349 306.554,215.902 330.691,215.23C331.937,215.197 338.144,213.371 332.846,210.82C328.403,208.668 316.646,209.635 312.693,209.635C312.693,209.635 327.948,206.875 327.948,204.294C327.948,204.294 331.514,201.258 312.557,202.504C309.46,202.705 303.104,201.62 301.253,201.484L293.985,201.191C293.985,201.191 285.658,201.948 282.191,201.948C281.332,201.948 269.994,198.97 258.027,191.115C258.027,191.115 229.053,174.777 210.118,175.83C210.118,175.83 192.051,176.056 181.816,169.478C181.816,169.478 232.995,164.808 247.363,167.972C247.363,167.972 282.663,182.668 308.991,179.427C328.589,177.04 370.422,172.437 386.942,167.751C395.49,165.303 417.052,166.75 422.436,164.789C424.776,163.905 426.931,164.369 432.229,166.27C450.766,172.865 463.822,172.025 513.007,155.436C513.007,155.436 523.905,150.33 543.487,152.911C543.487,152.911 565.289,163.509 565.725,156.721C565.725,156.721 567.17,156.19 566.026,153.894C566.026,153.894 569.811,150.228 567.759,146.266C567.759,146.266 570.687,142.596 568.079,139.46C568.079,139.46 570.972,136.946 568.634,133.279C568.634,133.279 571.88,128.466 568.364,125.607C568.364,125.607 569.491,120.525 546.578,129.571C546.578,129.571 522.287,133.036 517.51,134.945C508.463,138.587 483.666,136.015 478.351,135.238C469.466,133.987 454.33,134.658 442.619,136.946C434.227,138.62 418.381,134.086 408.64,132.412C388.133,128.972 335.782,122.23 325.876,123.073L326.854,120.288C326.859,118.293 325.884,117.033 325.884,117.033Z" style="fill:white;fill-opacity:0.5;fill-rule:nonzero;"/>
    </g>
</svg>
