<svg width="570" height="240" viewBox="0 0 570 240" fill="none" xmlns="http://www.w3.org/2000/svg">
<path d="M325.884 117.033C335.774 117.873 388.122 111.159 408.648 107.694C418.372 106.044 434.216 101.521 442.628 103.149C454.352 105.472 469.524 106.144 478.359 104.865C483.724 104.058 508.468 101.519 517.518 105.152C522.265 107.053 546.586 110.537 546.586 110.537C569.499 119.614 568.372 114.491 568.372 114.491C571.82 111.681 568.643 106.868 568.643 106.868C570.98 103.201 568.087 100.662 568.087 100.662C570.692 97.515 567.767 93.8458 567.767 93.8458C569.82 89.8919 566.035 86.2254 566.035 86.2254C567.179 83.9542 565.734 83.3988 565.734 83.3988C565.297 76.5852 543.495 87.2007 543.495 87.2007C523.914 89.7427 513.015 84.6781 513.015 84.6781C463.828 68.089 450.775 67.2463 432.238 73.8775C426.887 75.7453 424.768 76.2178 422.444 75.3585C417.082 73.3719 395.515 74.8197 386.951 72.3965C370.433 67.7215 328.544 63.1101 308.999 60.7062C282.672 57.4763 247.372 72.1479 247.372 72.1479C233.006 75.3612 181.824 70.6503 181.824 70.6503C192.059 64.0716 210.126 64.323 210.126 64.323C229.075 65.3674 258.035 49.0132 258.035 49.0132C270.003 41.1552 281.357 38.1794 282.199 38.1794C285.647 38.1794 293.993 38.9337 293.993 38.9337L301.261 38.6326C303.112 38.4972 309.485 37.4555 312.566 37.6241C331.522 38.8508 327.956 35.8392 327.956 35.8392C327.956 33.2972 312.701 30.5038 312.701 30.5038C316.635 30.5038 328.412 31.4653 332.854 29.3434C338.153 26.8041 331.945 24.9364 330.699 24.9032C306.563 24.2318 312.886 22.7812 312.886 22.7812C332.467 21.3693 336.89 19.6341 335.36 16.523C334.235 14.1662 311.861 16.3213 311.861 16.3213C325.152 12.2846 327.268 9.22314 327.268 9.22314C331.945 2.56153 319.027 6.68116 316.469 7.60676C302.877 12.536 298.167 12.6879 298.167 12.6879C310.38 6.5292 309.927 1.88736 309.927 1.88736C308.01 -4.11942 290.716 7.13708 282.431 13.7324C278.21 17.0977 272.558 21.4384 269.201 22.6983C263.516 24.7512 245.239 26.3013 245.239 26.3013C223.671 26.923 214.303 32.2556 214.303 32.2556C199.712 41.3735 172.492 43.0893 172.492 43.0893L126.536 43.4927C95.1895 46.6895 94.9629 69.791 94.9629 69.791C91.4876 93.1412 83.9458 96.3905 83.9458 96.3905C76.8294 101.336 63.1878 98.5097 63.1878 98.5097C59.8506 94.4067 50.991 92.8235 50.991 92.8235C45.767 86.0099 38.1229 86.3442 38.2058 89.4913C38.2721 92.0167 36.1808 91.4447 36.1808 91.4447C1.77017 87.1842 0.0131783 117.737 0.0131783 117.737L0.0131785 122.401C0.0131785 122.401 1.77018 152.969 36.1725 148.714C36.1725 148.714 38.2666 148.142 38.1975 150.689C38.1146 153.828 45.7587 154.121 50.9827 147.332C50.9827 147.332 59.8395 145.752 63.1795 141.646C63.1795 141.646 76.8211 138.819 83.9375 143.765C83.9375 143.765 91.4793 147.003 94.9547 170.364C94.9547 170.364 95.1812 193.505 126.528 196.652L172.484 197.088C172.484 197.088 199.703 198.771 214.295 207.925C214.295 207.925 223.666 213.233 245.231 213.846C245.231 213.846 263.508 215.402 269.193 217.446C272.533 218.692 278.185 223.03 282.423 226.423C290.692 233.076 307.949 244.258 309.919 238.276C309.919 238.276 310.372 233.61 298.159 227.476C298.159 227.476 302.836 227.603 316.461 232.524C318.986 233.491 331.904 237.605 327.26 230.941C327.26 230.941 325.141 227.854 311.853 223.842C311.853 223.842 334.227 225.995 335.351 223.599C336.885 220.469 332.459 218.761 312.878 217.349C312.878 217.349 306.554 215.902 330.691 215.23C331.937 215.197 338.144 213.371 332.846 210.82C328.403 208.668 316.646 209.635 312.693 209.635C312.693 209.635 327.948 206.875 327.948 204.294C327.948 204.294 331.514 201.258 312.557 202.504C309.46 202.705 303.104 201.62 301.253 201.484L293.985 201.191C293.985 201.191 285.658 201.948 282.191 201.948C281.332 201.948 269.994 198.97 258.027 191.115C258.027 191.115 229.053 174.777 210.118 175.83C210.118 175.83 192.051 176.056 181.816 169.478C181.816 169.478 232.995 164.808 247.363 167.972C247.363 167.972 282.663 182.668 308.991 179.427C328.589 177.04 370.422 172.437 386.942 167.751C395.49 165.303 417.052 166.75 422.436 164.789C424.776 163.905 426.931 164.369 432.229 166.27C450.766 172.865 463.822 172.025 513.007 155.436C513.007 155.436 523.905 150.33 543.487 152.911C543.487 152.911 565.289 163.509 565.725 156.721C565.725 156.721 567.17 156.19 566.026 153.894C566.026 153.894 569.811 150.228 567.759 146.266C567.759 146.266 570.687 142.596 568.079 139.46C568.079 139.46 570.972 136.946 568.634 133.279C568.634 133.279 571.88 128.466 568.364 125.607C568.364 125.607 569.491 120.525 546.578 129.571C546.578 129.571 522.287 133.036 517.51 134.945C508.463 138.587 483.666 136.015 478.351 135.238C469.466 133.987 454.33 134.658 442.619 136.946C434.227 138.62 418.381 134.086 408.64 132.412C388.133 128.972 335.782 122.23 325.876 123.073L326.854 120.288C326.859 118.293 325.884 117.033 325.884 117.033Z" fill="white" fill-opacity="0.5"/>
</svg>
