<?xml version="1.0" encoding="UTF-8" standalone="no"?>
<!DOCTYPE svg PUBLIC "-//W3C//DTD SVG 1.1//EN" "http://www.w3.org/Graphics/SVG/1.1/DTD/svg11.dtd">
<svg width="100%" height="100%" viewBox="0 0 180 180" version="1.1" xmlns="http://www.w3.org/2000/svg" xmlns:xlink="http://www.w3.org/1999/xlink" xml:space="preserve" xmlns:serif="http://www.serif.com/" style="fill-rule:evenodd;clip-rule:evenodd;stroke-linecap:round;stroke-linejoin:round;">
    <g id="Artboard1" transform="matrix(0.865385,0,0,0.912545,0,0)">
        <rect x="0" y="0" width="208" height="197.251" style="fill:none;"/>
        <g transform="matrix(6.74074,0,0,6.39238,104,98.6253)">
            <g transform="matrix(1,0,0,1,-12,-12)">
                <path d="M20,13C20,18 16.5,20.5 12.34,21.95C12.122,22.024 11.885,22.02 11.67,21.94C7.5,20.5 4,18 4,13L4,6C4,5.451 4.451,5 5,5C7,5 9.5,3.8 11.24,2.28C11.676,1.908 12.324,1.908 12.76,2.28C14.51,3.81 17,5 19,5C19.549,5 20,5.451 20,6L20,13Z" style="fill:none;fill-rule:nonzero;stroke:white;stroke-width:2px;"/>
                <path d="M9,12L15,12" style="fill:none;fill-rule:nonzero;stroke:white;stroke-width:2px;"/>
                <path d="M12,9L12,15" style="fill:none;fill-rule:nonzero;stroke:white;stroke-width:2px;"/>
            </g>
        </g>
    </g>
</svg>
