<svg width="100%" height="100%" fill="white" viewBox="0 0 500 500" version="1.1" xmlns="http://www.w3.org/2000/svg" xmlns:xlink="http://www.w3.org/1999/xlink" xml:space="preserve" xmlns:serif="http://www.serif.com/" style="fill-rule:evenodd;clip-rule:evenodd;stroke-linejoin:round;stroke-miterlimit:2;">
    <g id="Medic---path" transform="matrix(0.803473,0,0,0.778887,0,0)">
        <g transform="matrix(1.72831,0,0,1.28619,-73.0515,-75.0821)">
            <path d="M264.397,144.686C265.402,144.107 266.505,143.788 267.661,143.788L375.798,143.788C378.971,143.788 381.882,146.229 383.353,150.125C384.825,154.021 384.615,158.728 382.807,162.342L245.266,437.426C242.584,442.788 237.267,444.124 233.399,440.408C229.531,436.691 228.567,429.321 231.248,423.959L286.404,313.646L270.428,313.646C265.722,313.646 261.901,308.349 261.901,301.825C261.901,295.301 265.722,290.004 270.428,290.004L298.225,290.004L325.413,235.628L270.428,235.628C265.722,235.628 261.901,230.331 261.901,223.807C261.901,217.283 265.722,211.986 270.428,211.986L337.234,211.986L359.512,167.429L271.193,167.429L249.932,196.9C246.604,201.514 241.2,201.514 237.872,196.9C234.544,192.287 234.544,184.796 237.872,180.183L261.631,147.25C262.448,146.117 263.391,145.262 264.397,144.686ZM158.193,313.646L213.349,423.959C216.03,429.321 215.066,436.691 211.198,440.408C207.33,444.124 202.012,442.788 199.331,437.426L61.79,162.342C59.982,158.728 59.772,154.021 61.244,150.125C62.715,146.229 65.626,143.788 68.798,143.788L176.936,143.788C178.092,143.788 179.194,144.107 180.2,144.686C181.206,145.262 182.149,146.117 182.966,147.25L259.668,253.571C262.998,258.187 262.998,265.672 259.668,270.288L206.217,344.38L222.298,366.671L238.38,344.38L235.234,340.019C231.906,335.405 231.906,327.915 235.234,323.301C238.562,318.688 243.966,318.688 247.294,323.301L256.47,336.021C259.8,340.638 259.8,348.122 256.47,352.738L228.329,391.747C225,396.36 219.596,396.36 216.268,391.747L188.127,352.738C184.796,348.122 184.796,340.638 188.127,336.021L241.578,261.929L173.404,167.429L85.085,167.429L107.363,211.986L174.169,211.986L174.169,235.628L119.184,235.628L146.372,290.004L174.169,290.004C178.875,290.004 182.696,295.301 182.696,301.825C182.696,308.349 178.875,313.646 174.169,313.646L158.193,313.646ZM222.298,442.513C228.182,442.513 232.958,449.134 232.958,457.289C232.958,465.444 228.182,472.065 222.298,472.065C216.415,472.065 211.639,465.444 211.639,457.289C211.639,449.134 216.415,442.513 222.298,442.513ZM195.205,239.327C198.533,234.714 203.937,234.714 207.265,239.327C210.593,243.94 210.593,251.431 207.265,256.044L203.019,261.929L208.173,269.073C211.501,273.687 211.501,281.177 208.173,285.79C204.845,290.404 199.441,290.404 196.113,285.79L184.929,270.288C181.599,265.672 181.599,258.187 184.929,253.571L195.205,239.327Z"/>
        </g>
    </g>
</svg>
