<svg width="24" height="24" viewBox="0 0 24 24" xmlns="http://www.w3.org/2000/svg">
<path fill-rule="evenodd" clip-rule="evenodd" d="M12 19.5C11.7239 19.5 11.5 19.2761 11.5 19V5C11.5 4.72386 11.7239 4.5 12 4.5C12.2761 4.5 12.5 4.72386 12.5 5V19C12.5 19.2761 12.2761 19.5 12 19.5Z"/>
<path fill-rule="evenodd" clip-rule="evenodd" d="M4.64645 11.6464C4.84171 11.4512 5.15829 11.4512 5.35355 11.6464L12 18.2929L18.6464 11.6464C18.8417 11.4512 19.1583 11.4512 19.3536 11.6464C19.5488 11.8417 19.5488 12.1583 19.3536 12.3536L12.3536 19.3536C12.1583 19.5488 11.8417 19.5488 11.6464 19.3536L4.64645 12.3536C4.45118 12.1583 4.45118 11.8417 4.64645 11.6464Z"/>
</svg>
