<svg width="24" height="24" viewBox="0 0 24 24" xmlns="http://www.w3.org/2000/svg">
<path fill-rule="evenodd" clip-rule="evenodd" d="M12 4.5C12.2761 4.5 12.5 4.72386 12.5 5V19C12.5 19.2761 12.2761 19.5 12 19.5C11.7239 19.5 11.5 19.2761 11.5 19V5C11.5 4.72386 11.7239 4.5 12 4.5Z"/>
<path fill-rule="evenodd" clip-rule="evenodd" d="M19.3536 12.3536C19.1583 12.5488 18.8417 12.5488 18.6464 12.3536L12 5.70711L5.35355 12.3536C5.15829 12.5488 4.84171 12.5488 4.64645 12.3536C4.45118 12.1583 4.45118 11.8417 4.64645 11.6464L11.6464 4.64645C11.8417 4.45118 12.1583 4.45118 12.3536 4.64645L19.3536 11.6464C19.5488 11.8417 19.5488 12.1583 19.3536 12.3536Z"/>
</svg>
