<svg width="24" height="24" viewBox="0 0 24 24" xmlns="http://www.w3.org/2000/svg">
<path fill-rule="evenodd" clip-rule="evenodd" d="M19.5 12C19.5 11.7239 19.2761 11.5 19 11.5H5C4.72386 11.5 4.5 11.7239 4.5 12C4.5 12.2761 4.72386 12.5 5 12.5H19C19.2761 12.5 19.5 12.2761 19.5 12Z"/>
<path fill-rule="evenodd" clip-rule="evenodd" d="M11.6464 4.64645C11.4512 4.84171 11.4512 5.15829 11.6464 5.35355L18.2929 12L11.6464 18.6464C11.4512 18.8417 11.4512 19.1583 11.6464 19.3536C11.8417 19.5488 12.1583 19.5488 12.3536 19.3536L19.3536 12.3536C19.5488 12.1583 19.5488 11.8417 19.3536 11.6464L12.3536 4.64645C12.1583 4.45118 11.8417 4.45118 11.6464 4.64645Z"/>
</svg>
