<?xml version="1.0" encoding="UTF-8" standalone="no"?>
<!DOCTYPE svg PUBLIC "-//W3C//DTD SVG 1.1//EN" "http://www.w3.org/Graphics/SVG/1.1/DTD/svg11.dtd">
<svg width="100%" height="100%" viewBox="0 0 56 56" version="1.1" xmlns="http://www.w3.org/2000/svg" xmlns:xlink="http://www.w3.org/1999/xlink" xml:space="preserve" xmlns:serif="http://www.serif.com/" style="fill-rule:evenodd;clip-rule:evenodd;stroke-linecap:round;stroke-linejoin:round;">
    <g transform="matrix(1,0,0,1,-4,-4)">
        <g id="adrenaline">
            <g id="adre" transform="matrix(2.33333,0,0,2.33333,32,32)">
                <g transform="matrix(1,0,0,1,-12,-12)">
                    <g transform="matrix(1,2.22045e-16,-2.22045e-16,1,-2.04957,0.861532)">
                        <path d="M21.606,6.394L17.579,2.421L18.218,1.782L22.213,5.787L21.606,6.394Z" style="fill:none;fill-rule:nonzero;stroke:black;stroke-width:2px;"/>
                    </g>
                    <g transform="matrix(1,2.22045e-16,-2.22045e-16,1,-0.920197,-0.0278464)">
                        <path d="M18.76,8.76L8.46,19.06L4.875,15.475L15,5" style="fill:none;fill-rule:nonzero;stroke:black;stroke-width:2px;"/>
                    </g>
                    <g transform="matrix(1,2.22045e-16,-2.22045e-16,1,-1.63691,0.266614)">
                        <path d="M9.5,11.5L12.682,14.682" style="fill:none;fill-rule:nonzero;stroke:black;stroke-width:2px;"/>
                    </g>
                    <g transform="matrix(2.22045e-16,1,-1,2.22045e-16,25.7483,14.6854)">
                        <path d="M4.498,19.502L2,22" style="fill:none;fill-rule:nonzero;stroke:black;stroke-width:2px;"/>
                    </g>
                    <g transform="matrix(-1,2.22045e-16,-2.22045e-16,-1,8.24652,38.6854)">
                        <path d="M4.498,19.502L2.527,21.473" style="fill:none;fill-rule:nonzero;stroke:black;stroke-width:2px;"/>
                    </g>
                    <g transform="matrix(2.22045e-16,1,-1,2.22045e-16,37.1879,2.62403)">
                        <path d="M5,19L2,22" style="fill:none;fill-rule:nonzero;stroke:black;stroke-width:2px;"/>
                    </g>
                    <g transform="matrix(1,2.22045e-16,-2.22045e-16,1,-0.941321,-0.0489709)">
                        <path d="M15.12,5.12L18.682,8.682" style="fill:none;fill-rule:nonzero;stroke:black;stroke-width:2px;"/>
                    </g>
                </g>
            </g>
            <g transform="matrix(3.87852,0,0,3.87852,-14.5422,-34.7576)">
                <path d="M15.094,17.212C16.802,17.212 18.188,18.599 18.188,20.306C18.188,22.014 16.802,23.4 15.094,23.4C13.386,23.4 12,22.014 12,20.306C12,18.599 13.386,17.212 15.094,17.212ZM15.607,21.322L15.795,22.093L16.701,22.093L15.607,18.519L14.581,18.519L13.487,22.093L14.372,22.093L14.56,21.322L15.607,21.322ZM14.694,20.708L15.081,19.128L15.468,20.708L14.694,20.708Z"/>
            </g>
        </g>
    </g>
</svg>
