<?xml version="1.0" encoding="UTF-8" standalone="no"?>
<!DOCTYPE svg PUBLIC "-//W3C//DTD SVG 1.1//EN" "http://www.w3.org/Graphics/SVG/1.1/DTD/svg11.dtd">
<svg width="100%" height="100%" viewBox="0 0 50 50" version="1.1" xmlns="http://www.w3.org/2000/svg" xmlns:xlink="http://www.w3.org/1999/xlink" xml:space="preserve" xmlns:serif="http://www.serif.com/" style="fill-rule:evenodd;clip-rule:evenodd;stroke-linecap:round;stroke-linejoin:round;">
    <g transform="matrix(1,0,0,1,-7,-7)">
        <g id="bandage">
            <g transform="matrix(-1.4487,1.4487,-1.4487,-1.4487,66.7689,32)">
                <path d="M10,10.01L10.01,10.01" style="fill:none;fill-rule:nonzero;stroke:black;stroke-width:2px;"/>
            </g>
            <g transform="matrix(-1.4487,1.4487,-1.4487,-1.4487,66.7689,32)">
                <path d="M10,14.01L10.01,14.01" style="fill:none;fill-rule:nonzero;stroke:black;stroke-width:2px;"/>
            </g>
            <g transform="matrix(-1.4487,1.4487,-1.4487,-1.4487,66.7689,32)">
                <path d="M14,10.01L14.01,10.01" style="fill:none;fill-rule:nonzero;stroke:black;stroke-width:2px;"/>
            </g>
            <g transform="matrix(-1.4487,1.4487,-1.4487,-1.4487,66.7689,32)">
                <path d="M14,14.01L14.01,14.01" style="fill:none;fill-rule:nonzero;stroke:black;stroke-width:2px;"/>
            </g>
            <g transform="matrix(-1.4487,1.4487,-1.4487,-1.4487,66.7689,32)">
                <path d="M18,6L18,17.5" style="fill:none;fill-rule:nonzero;stroke:black;stroke-width:2px;"/>
            </g>
            <g transform="matrix(-1.4487,1.4487,-1.4487,-1.4487,66.7689,32)">
                <path d="M6,6L6,18" style="fill:none;fill-rule:nonzero;stroke:black;stroke-width:2px;"/>
            </g>
            <g transform="matrix(-1.4487,1.4487,-1.4487,-1.4487,66.7689,32)">
                <path d="M22,6.976L22,17.024C22,17.563 21.563,18 21.024,18L2.976,18C2.437,18 2,17.563 2,17.024L2,6.976C2,6.437 2.437,6 2.976,6L21.024,6C21.563,6 22,6.437 22,6.976Z" style="fill:none;stroke:black;stroke-width:2px;"/>
            </g>
        </g>
    </g>
</svg>
