<?xml version="1.0" encoding="UTF-8" standalone="no"?>
<!DOCTYPE svg PUBLIC "-//W3C//DTD SVG 1.1//EN" "http://www.w3.org/Graphics/SVG/1.1/DTD/svg11.dtd">
<svg width="100%" height="100%" viewBox="0 0 56 56" version="1.1" xmlns="http://www.w3.org/2000/svg" xmlns:xlink="http://www.w3.org/1999/xlink" xml:space="preserve" xmlns:serif="http://www.serif.com/" style="fill-rule:evenodd;clip-rule:evenodd;stroke-linecap:round;stroke-linejoin:round;">
    <g transform="matrix(1,0,0,1,-4,-4)">
        <g id="bleeding" transform="matrix(1.97932,0,0,1.97932,-30.5255,-30.1191)">
            <g transform="matrix(1.17886,0,0,1.17886,31.5894,31.3841)">
                <g id="bleeding1" serif:id="bleeding">
                    <g transform="matrix(1,0,0,1,-12,-12)">
                        <path d="M12,22C15.84,22 19,18.84 19,15C19,13 18,11.1 16,9.5C14,7.9 12.5,5.5 12,3C11.5,5.5 10,7.9 8,9.5C6,11.1 5,13 5,15C5,18.84 8.16,22 12,22Z" style="fill:none;fill-rule:nonzero;stroke:black;stroke-width:2px;"/>
                    </g>
                </g>
            </g>
        </g>
    </g>
</svg>
