<?xml version="1.0" encoding="UTF-8" standalone="no"?>
<!DOCTYPE svg PUBLIC "-//W3C//DTD SVG 1.1//EN" "http://www.w3.org/Graphics/SVG/1.1/DTD/svg11.dtd">
<svg width="100%" height="100%" viewBox="0 0 56 56" version="1.1" xmlns="http://www.w3.org/2000/svg" xmlns:xlink="http://www.w3.org/1999/xlink" xml:space="preserve" xmlns:serif="http://www.serif.com/" style="fill-rule:evenodd;clip-rule:evenodd;stroke-linecap:round;stroke-linejoin:round;">
    <g transform="matrix(1,0,0,1,-4,-4)">
        <g id="heavy-bleeding" transform="matrix(2.16304,0,0,2.16304,6.04345,4.90916)">
            <g transform="matrix(1.07873,0,0,1.07873,12,12.5244)">
                <g id="heavy-bleeding1" serif:id="heavy-bleeding">
                    <g transform="matrix(1,0,0,1,-12,-12)">
                        <path d="M7,16.3C9.2,16.3 11,14.47 11,12.25C11,11.09 10.43,9.99 9.29,9.06C8.15,8.13 7.29,6.75 7,5.3C6.71,6.75 5.86,8.14 4.71,9.06C3.56,9.98 3,11.1 3,12.25C3,14.47 4.8,16.3 7,16.3Z" style="fill:none;fill-rule:nonzero;stroke:black;stroke-width:2px;"/>
                        <path d="M12.56,6.6C13.248,5.501 13.735,4.289 14,3.02C14.5,5.52 16,7.92 18,9.52C20,11.12 21,13.02 21,15.02C21,15.03 21,15.039 21,15.049C21,18.878 17.849,22.029 14.02,22.029C12.172,22.029 10.398,21.295 9.09,19.99" style="fill:none;fill-rule:nonzero;stroke:black;stroke-width:2px;"/>
                    </g>
                </g>
            </g>
        </g>
    </g>
</svg>
