<?xml version="1.0" encoding="UTF-8" standalone="no"?>
<!DOCTYPE svg PUBLIC "-//W3C//DTD SVG 1.1//EN" "http://www.w3.org/Graphics/SVG/1.1/DTD/svg11.dtd">
<svg width="100%" height="100%" viewBox="0 0 56 56" version="1.1" xmlns="http://www.w3.org/2000/svg" xmlns:xlink="http://www.w3.org/1999/xlink" xml:space="preserve" xmlns:serif="http://www.serif.com/" style="fill-rule:evenodd;clip-rule:evenodd;stroke-linecap:round;stroke-linejoin:round;">
    <g transform="matrix(1,0,0,1,-4,-4)">
        <g transform="matrix(2.33333,0,0,2.33333,32,32)">
            <g id="splint">
                <g transform="matrix(1,0,0,1,-12,-12)">
                    <path d="M12,11L12,15" style="fill:none;fill-rule:nonzero;stroke:black;stroke-width:2px;"/>
                    <path d="M14,13L10,13" style="fill:none;fill-rule:nonzero;stroke:black;stroke-width:2px;"/>
                    <path d="M16,6L16,4C16,2.903 15.097,2 14,2L10,2C8.903,2 8,2.903 8,4L8,6" style="fill:none;fill-rule:nonzero;stroke:black;stroke-width:2px;"/>
                    <path d="M18,6L18,20" style="fill:none;fill-rule:nonzero;stroke:black;stroke-width:2px;"/>
                    <path d="M6,6L6,20" style="fill:none;fill-rule:nonzero;stroke:black;stroke-width:2px;"/>
                    <path d="M22,8L22,18C22,19.104 21.104,20 20,20L4,20C2.896,20 2,19.104 2,18L2,8C2,6.896 2.896,6 4,6L20,6C21.104,6 22,6.896 22,8Z" style="fill:none;stroke:black;stroke-width:2px;"/>
                </g>
            </g>
        </g>
    </g>
</svg>
