<?xml version="1.0" encoding="UTF-8" standalone="no"?>
<!DOCTYPE svg PUBLIC "-//W3C//DTD SVG 1.1//EN" "http://www.w3.org/Graphics/SVG/1.1/DTD/svg11.dtd">
<svg width="100%" height="100%" viewBox="0 0 56 56" version="1.1" xmlns="http://www.w3.org/2000/svg" xmlns:xlink="http://www.w3.org/1999/xlink" xml:space="preserve" xmlns:serif="http://www.serif.com/" style="fill-rule:evenodd;clip-rule:evenodd;stroke-linecap:round;stroke-linejoin:round;">
    <g transform="matrix(1,0,0,1,-4,-4)">
        <g transform="matrix(2.33333,0,0,2.33333,32,32)">
            <g id="win">
                <g transform="matrix(1,0,0,1,-12,-12)">
                    <path d="M5.8,11.3L2,22L12.7,18.21" style="fill:none;fill-rule:nonzero;stroke:black;stroke-width:2px;"/>
                    <path d="M4,3L4.01,3" style="fill:none;fill-rule:nonzero;stroke:black;stroke-width:2px;"/>
                    <path d="M22,8L22.01,8" style="fill:none;fill-rule:nonzero;stroke:black;stroke-width:2px;"/>
                    <path d="M15,2L15.01,2" style="fill:none;fill-rule:nonzero;stroke:black;stroke-width:2px;"/>
                    <path d="M22,20L22.01,20" style="fill:none;fill-rule:nonzero;stroke:black;stroke-width:2px;"/>
                    <path d="M22,2L19.76,2.75C18.45,3.186 17.625,4.501 17.8,5.87C17.9,6.73 17.23,7.5 16.35,7.5L15.97,7.5C15.11,7.5 14.37,8.1 14.21,8.94L14,10" style="fill:none;fill-rule:nonzero;stroke:black;stroke-width:2px;"/>
                    <path d="M22,13L21.18,12.67C20.32,12.33 19.36,12.87 19.2,13.78C19.09,14.48 18.48,15 17.77,15L17,15" style="fill:none;fill-rule:nonzero;stroke:black;stroke-width:2px;"/>
                    <path d="M11,2L11.33,2.82C11.67,3.68 11.13,4.64 10.22,4.8C9.52,4.9 9,5.52 9,6.23L9,7" style="fill:none;fill-rule:nonzero;stroke:black;stroke-width:2px;"/>
                    <path d="M11,13C12.93,14.93 13.83,17.17 13,18C12.17,18.83 9.93,17.93 8,16C6.07,14.07 5.17,11.83 6,11C6.83,10.17 9.07,11.07 11,13Z" style="fill:none;fill-rule:nonzero;stroke:black;stroke-width:2px;"/>
                </g>
            </g>
        </g>
    </g>
</svg>
