<?xml version="1.0" encoding="UTF-8" standalone="no"?><!DOCTYPE svg PUBLIC "-//W3C//DTD SVG 1.1//EN" "http://www.w3.org/Graphics/SVG/1.1/DTD/svg11.dtd"><svg xmlns="http://www.w3.org/2000/svg" xmlns:xlink="http://www.w3.org/1999/xlink"><symbol viewBox="0 0 56 56" fill-rule="evenodd" clip-rule="evenodd" stroke-linecap="round" stroke-linejoin="round" id="adrenaline" xmlns="http://www.w3.org/2000/svg"><path d="M45.632 16.93l-9.397-9.27 1.491-1.492 9.322 9.345-1.416 1.417zM41.626 20.375L17.593 44.408l-8.365-8.365 23.625-24.441M18.347 27.455l7.425 7.425M14.575 44.761l-5.829-5.828M8.747 44.761l4.599-4.599M42.438 17.79l-7-7M33.084 11.832l8.31 8.312" fill="none" stroke="#000" stroke-width="4.66666"/><g><path d="M40 28c6.625 0 12 5.379 12 12 0 6.624-5.375 12-12 12-6.624 0-12-5.376-12-12 0-6.621 5.376-12 12-12zm1.99 15.94l.729 2.99h3.514L41.99 33.07h-3.98L33.768 46.93H37.2l.73-2.99h4.06zm-3.541-2.381l1.5-6.128 1.502 6.128h-3.002z"/></g></symbol><symbol fill="none" stroke="currentColor" stroke-width="2" stroke-linecap="round" stroke-linejoin="round" class="ablucide ablucide-arrow-left-icon ablucide-arrow-left" viewBox="0 0 24 24" id="arrow-left" xmlns="http://www.w3.org/2000/svg"><path d="M12 19l-7-7 7-7M19 12H5"/></symbol><symbol fill="none" stroke="currentColor" stroke-width="2" stroke-linecap="round" stroke-linejoin="round" class="aclucide aclucide-arrow-right-icon aclucide-arrow-right" viewBox="0 0 24 24" id="arrow-right" xmlns="http://www.w3.org/2000/svg"><path d="M5 12h14M12 5l7 7-7 7"/></symbol><symbol viewBox="0 0 50 50" fill-rule="evenodd" clip-rule="evenodd" stroke-linecap="round" stroke-linejoin="round" id="bandage" xmlns="http://www.w3.org/2000/svg"><path d="M30.78 24.986l-.014.014M24.986 19.19l-.015.015M24.986 30.78l-.015.015M19.19 24.986l-.014.014M25 42.384L8.34 25.724M42.385 25L25 7.616M17.791 46.765L3.235 32.21a2 2 0 010-2.828L29.38 3.235a2 2 0 012.828 0L46.765 17.79a2 2 0 010 2.828L20.62 46.765a2 2 0 01-2.828 0z" fill="none" stroke="#000" stroke-width="4.09754"/></symbol><symbol viewBox="0 0 56 56" fill-rule="evenodd" clip-rule="evenodd" stroke-linecap="round" stroke-linejoin="round" id="bleeding" xmlns="http://www.w3.org/2000/svg"><path d="M28 51.333c8.96 0 16.333-7.373 16.333-16.333 0-4.667-2.333-9.1-7-12.833C32.667 18.433 29.167 12.833 28 7c-1.167 5.833-4.667 11.433-9.333 15.167-4.667 3.733-7 8.166-7 12.833 0 8.96 7.373 16.333 16.333 16.333z" fill="none" stroke="#000" stroke-width="4.66668"/></symbol><symbol fill="none" stroke="currentColor" stroke-width="2" stroke-linecap="round" stroke-linejoin="round" class="aflucide aflucide-chart-pie-icon aflucide-chart-pie" viewBox="0 0 24 24" id="chart-pie" xmlns="http://www.w3.org/2000/svg"><path d="M21 12c.552 0 1.005-.449.95-.998a10 10 0 00-8.953-8.951c-.55-.055-.998.398-.998.95v8a1 1 0 001 1zM21.21 15.89A10 10 0 118 2.83"/></symbol><symbol fill="none" stroke="currentColor" stroke-width="2" stroke-linecap="round" stroke-linejoin="round" class="aglucide aglucide-check-icon aglucide-check" viewBox="0 0 24 24" id="check" xmlns="http://www.w3.org/2000/svg"><path d="M20 6L9 17l-5-5"/></symbol><symbol fill="none" stroke="currentColor" stroke-width="2" stroke-linecap="round" stroke-linejoin="round" class="ahlucide ahlucide-chromium-icon ahlucide-chromium" viewBox="0 0 24 24" id="chromium" xmlns="http://www.w3.org/2000/svg"><path d="M10.88 21.94L15.46 14M21.17 8H12M3.95 6.06L8.54 14"/><circle cx="12" cy="12" r="10"/><circle cx="12" cy="12" r="4"/></symbol><symbol fill="none" stroke="currentColor" stroke-width="2" stroke-linecap="round" stroke-linejoin="round" class="ailucide ailucide-x-icon ailucide-x" viewBox="0 0 24 24" id="cross" xmlns="http://www.w3.org/2000/svg"><path d="M18 6L6 18M6 6l12 12"/></symbol><symbol viewBox="0 0 56 56" fill-rule="evenodd" clip-rule="evenodd" stroke-linecap="round" stroke-linejoin="round" id="dead" xmlns="http://www.w3.org/2000/svg"><g transform="scale(2.33333)" fill="none" stroke="#000" stroke-width="2"><path d="M12.5 17l-.5-1-.5 1h1z"/><path d="M15 22c.549 0 1-.451 1-1v-1a2.01 2.01 0 001.999-2c0-.454-.155-.895-.439-1.25A8.002 8.002 0 0020 10.998c0-4.389-3.611-8-8-8-4.389 0-8 3.611-8 8 0 2.168.881 4.245 2.44 5.752A2.002 2.002 0 006.001 18 2.01 2.01 0 008 20v1c0 .549.451 1 1 1h6z"/><circle cx="15" cy="12" r="1"/><circle cx="9" cy="12" r="1"/></g></symbol><symbol viewBox="0 0 56 56" fill-rule="evenodd" clip-rule="evenodd" stroke-linecap="round" stroke-linejoin="round" id="defibrilator" xmlns="http://www.w3.org/2000/svg"><path d="M7.203 36.378a5.598 5.598 0 005.61 5.61h2.378l.002-27.18-2.38.002a5.598 5.598 0 00-5.61 5.61v15.958zM17.509 12.698v30.606M49.15 19.622a5.598 5.598 0 00-5.61-5.61h-2.379l-.002 27.18 2.381-.002a5.598 5.598 0 005.61-5.61V19.622zM38.844 43.302V12.697" fill="none" stroke="#000" stroke-width="4.66666"/><g><path d="M28.578 21.67c1.862-3.11-3.724 6.224-3.724 6.224h6.125l-3.944 7.07" fill="none" stroke="#000" stroke-width="4.66666"/></g></symbol><symbol viewBox="0 0 56 56" fill-rule="evenodd" clip-rule="evenodd" stroke-linecap="round" stroke-linejoin="round" id="dislocation" xmlns="http://www.w3.org/2000/svg"><g fill="none" stroke="#000" stroke-width="4.67"><path d="M24.922 52.1l2.465-5.846c.598-2.231 3.415-1.972 5.052-2.917 2.771-1.6 3.735-5.197 2.135-7.968-1.6-2.772-5.197-3.735-7.968-2.135a1.173 1.173 0 01-1.594-.427c-1.6-2.772-5.197-3.736-7.969-2.136-2.771 1.6-3.735 5.198-2.135 7.969.945 1.637 3.515 2.821 2.917 5.052l-3.928 8.35M51.907 7.945l-8.471 4.292c-2.001 1.154-3.809-1.021-5.635-1.51-3.091-.828-6.316 1.034-7.144 4.125-.828 3.091 1.034 6.316 4.125 7.144.618.166.99.811.825 1.429-.829 3.091 1.033 6.316 4.124 7.144 3.091.828 6.317-1.034 7.145-4.125.489-1.825-.491-4.479 1.51-5.634l3.869-2.147M21.149 8.788l-1.645-5.689M17.171 17.099l-8.769-4.895M12.504 25.266l-7.06 1.395"/></g></symbol><symbol fill="none" stroke="currentColor" stroke-width="2" stroke-linecap="round" stroke-linejoin="round" class="amlucide amlucide-download-icon amlucide-download" viewBox="0 0 24 24" id="download" xmlns="http://www.w3.org/2000/svg"><path d="M12 15V3M21 15v4a2 2 0 01-2 2H5a2 2 0 01-2-2v-4"/><path d="M7 10l5 5 5-5"/></symbol><symbol fill="none" stroke="currentColor" stroke-width="2" stroke-linecap="round" stroke-linejoin="round" class="anlucide anlucide-file-plus-icon anlucide-file-plus" viewBox="0 0 24 24" id="file-plus" xmlns="http://www.w3.org/2000/svg"><path d="M15 2H6a2 2 0 00-2 2v16a2 2 0 002 2h12a2 2 0 002-2V7z"/><path d="M14 2v4a2 2 0 002 2h4M9 15h6M12 18v-6"/></symbol><symbol fill="none" stroke="currentColor" stroke-width="2" stroke-linecap="round" stroke-linejoin="round" class="aolucide aolucide-file-up-icon aolucide-file-up" viewBox="0 0 24 24" id="file-up" xmlns="http://www.w3.org/2000/svg"><path d="M15 2H6a2 2 0 00-2 2v16a2 2 0 002 2h12a2 2 0 002-2V7z"/><path d="M14 2v4a2 2 0 002 2h4M12 12v6M15 15l-3-3-3 3"/></symbol><symbol viewBox="0 0 56 57" fill-rule="evenodd" clip-rule="evenodd" stroke-linecap="round" stroke-linejoin="round" id="fracture" xmlns="http://www.w3.org/2000/svg"><path d="M39.79 25.888c1.715-.99 3.266.875 4.83 1.294 2.649.71 5.414-.887 6.124-3.535.71-2.65-.887-5.415-3.535-6.124a1.006 1.006 0 01-.708-1.225c.71-2.649-.887-5.414-3.535-6.124-2.649-.71-5.414.887-6.124 3.536-.42 1.565.42 3.84-1.294 4.83l-3.162 1.825-2.262 3.241 5.177 1.166 1.746 2.7 2.744-1.584zM22.225 34.497c-.99 1.714-3.265.874-4.83 1.294-2.648.71-4.245 3.475-3.535 6.123.71 2.649 3.475 4.246 6.124 3.536a1.006 1.006 0 011.225.707c.71 2.649 3.475 4.245 6.123 3.536 2.649-.71 4.245-3.476 3.536-6.124-.42-1.565-2.284-3.115-1.294-4.83l2.46-4.262.338-3.94-5.066 1.58-2.86-1.466-2.22 3.846z" fill="none" stroke="#000" stroke-width="4"/><g><g fill="none" stroke="#000" stroke-width="2"><path d="M20.312 10.538L18.667 4.85M16.333 18.85l-8.768-4.896M11.667 27.016l-7.061 1.396" stroke-width="4.66666"/></g></g></symbol><symbol viewBox="0 0 56 56" fill-rule="evenodd" clip-rule="evenodd" stroke-linecap="round" stroke-linejoin="round" id="heart-failure" xmlns="http://www.w3.org/2000/svg"><path d="M31.519 47.397a4.665 4.665 0 01-7 .044L11.667 35c-3.5-3.5-7-7.467-7-12.833v-.003c0-7.04 5.793-12.833 12.833-12.833 3.64 0 7.112 1.55 9.546 4.256.534.5 1.374.5 1.908.002A12.843 12.843 0 0138.5 9.333c7.04 0 12.833 5.794 12.833 12.834 0 5.343-3.5 9.333-7 12.833L31.52 47.397z" fill="none" stroke="#000" stroke-width="4.66666"/><path d="M42.61 28H29.248a1.843 1.843 0 00-1.773 1.342l-2.16 7.681a.23.23 0 01-.44 0l-5.073-18.046a.23.23 0 00-.44 0l-2.16 7.681A1.842 1.842 0 0115.438 28H13.15" fill="none" stroke="#000" stroke-width="3.7948918"/></symbol><symbol viewBox="0 0 56 56" fill-rule="evenodd" clip-rule="evenodd" stroke-linecap="round" stroke-linejoin="round" id="heavy-bleeding" xmlns="http://www.w3.org/2000/svg"><g fill="none" stroke="#000" stroke-width="2"><path d="M16.333 38.033c5.134 0 9.334-4.27 9.334-9.45 0-2.706-1.33-5.273-3.99-7.443s-4.667-5.39-5.344-8.773c-.676 3.383-2.66 6.626-5.343 8.773C8.307 23.287 7 25.9 7 28.583c0 5.18 4.2 9.45 9.333 9.45z" stroke-width="4.66668"/><path d="M29.307 15.4a25.603 25.603 0 003.36-8.353C33.833 12.88 37.333 18.48 42 22.213c4.667 3.734 7 8.167 7 12.834v.067c0 8.935-7.352 16.287-16.287 16.287a16.293 16.293 0 01-11.503-4.758" stroke-width="4.66668"/></g></symbol><symbol fill="none" stroke="currentColor" stroke-width="2" stroke-linecap="round" stroke-linejoin="round" class="aslucide aslucide-menu-icon aslucide-menu" viewBox="0 0 24 24" id="menu" xmlns="http://www.w3.org/2000/svg"><path d="M4 5h16M4 12h16M4 19h16"/></symbol><symbol viewBox="0 0 56 56" fill-rule="evenodd" clip-rule="evenodd" stroke-linecap="round" stroke-linejoin="round" id="morphine" xmlns="http://www.w3.org/2000/svg"><path d="M45.632 16.93l-9.397-9.27 1.491-1.492 9.322 9.345-1.416 1.417zM41.626 20.375L17.593 44.408l-8.365-8.365 23.625-24.441M18.347 27.455l7.425 7.425M14.575 44.761l-5.829-5.828M8.747 44.761l4.599-4.599M42.438 17.79l-7-7M33.084 11.832l8.31 8.312" fill="none" stroke="#000" stroke-width="4.66666"/><g><path d="M40 28c6.625 0 12 5.379 12 12 0 6.624-5.375 12-12 12-6.624 0-12-5.376-12-12 0-6.621 5.376-12 12-12zm4.86 5.069h-3.37l-1.459 8.963-1.54-8.963h-3.374l-.78 13.862h2.812l.101-5.88c.012-.555.016-1.055.008-1.505-.004-.45-.015-.873-.027-1.265a29.003 29.003 0 00-.066-1.175c-.031-.391-.066-.806-.105-1.249l1.68 8.715h2.482l1.56-8.715-.098 1.276A39.53 39.53 0 0042.61 41l.171 5.93h2.859l-.78-13.861z"/></g></symbol><symbol fill="none" stroke="currentColor" stroke-width="2" stroke-linecap="round" stroke-linejoin="round" class="aulucide aulucide-person-standing-icon aulucide-person-standing" viewBox="0 0 24 24" id="person-standing" xmlns="http://www.w3.org/2000/svg"><circle cx="12" cy="5" r="1"/><path d="M9 20l3-6 3 6M6 8l6 2 6-2M12 10v4"/></symbol><symbol fill="none" stroke="currentColor" stroke-width="2" stroke-linecap="round" stroke-linejoin="round" class="avlucide avlucide-refresh-cw-icon avlucide-refresh-cw" viewBox="0 0 24 24" id="refresh" xmlns="http://www.w3.org/2000/svg"><path d="M3 12a9 9 0 019-9 9.75 9.75 0 016.74 2.74L21 8"/><path d="M21 3v5h-5M21 12a9 9 0 01-9 9 9.75 9.75 0 01-6.74-2.74L3 16"/><path d="M8 16H3v5"/></symbol><symbol fill="none" stroke="currentColor" stroke-width="2" stroke-linecap="round" stroke-linejoin="round" class="awlucide awlucide-scan-icon awlucide-scan" viewBox="0 0 24 24" id="scan" xmlns="http://www.w3.org/2000/svg"><path d="M3 7V5a2 2 0 012-2h2M17 3h2a2 2 0 012 2v2M21 17v2a2 2 0 01-2 2h-2M7 21H5a2 2 0 01-2-2v-2"/></symbol><symbol fill="none" stroke="currentColor" stroke-width="2" stroke-linecap="round" stroke-linejoin="round" class="axlucide axlucide-settings-icon axlucide-settings" viewBox="0 0 24 24" id="settings" xmlns="http://www.w3.org/2000/svg"><path d="M9.671 4.136a2.34 2.34 0 014.659 0 2.34 2.34 0 003.319 1.915 2.34 2.34 0 012.33 4.033 2.34 2.34 0 000 3.831 2.34 2.34 0 01-2.33 4.033 2.34 2.34 0 00-3.319 1.915 2.34 2.34 0 01-4.659 0 2.34 2.34 0 00-3.32-1.915 2.34 2.34 0 01-2.33-4.033 2.34 2.34 0 000-3.831A2.34 2.34 0 016.35 6.051a2.34 2.34 0 003.319-1.915"/><circle cx="12" cy="12" r="3"/></symbol><symbol fill="none" stroke="currentColor" stroke-width="2" stroke-linecap="round" stroke-linejoin="round" class="aylucide aylucide-shield-plus-icon aylucide-shield-plus" viewBox="0 0 24 24" id="shield-plus" xmlns="http://www.w3.org/2000/svg"><path d="M20 13c0 5-3.5 7.5-7.66 8.95a1 1 0 01-.67-.01C7.5 20.5 4 18 4 13V6a1 1 0 011-1c2 0 4.5-1.2 6.24-2.72a1.17 1.17 0 011.52 0C14.51 3.81 17 5 19 5a1 1 0 011 1zM9 12h6M12 9v6"/></symbol><symbol viewBox="0 0 56 56" fill-rule="evenodd" clip-rule="evenodd" stroke-linecap="round" stroke-linejoin="round" id="splint" xmlns="http://www.w3.org/2000/svg"><g fill="none" stroke="#000" stroke-width="2"><path d="M28 25.667V35M32.667 30.333h-9.334M37.333 14V9.333c0-2.56-2.107-4.666-4.666-4.666h-9.334c-2.56 0-4.666 2.107-4.666 4.666V14M42 14v32.667M14 14v32.667M51.333 18.667V42a4.668 4.668 0 01-4.666 4.667H9.333A4.668 4.668 0 014.667 42V18.667A4.668 4.668 0 019.333 14h37.334a4.668 4.668 0 014.666 4.667z" stroke-width="4.66666"/></g></symbol><symbol fill="none" stroke="currentColor" stroke-width="2" stroke-linecap="round" stroke-linejoin="round" class="balucide balucide-trash2-icon balucide-trash-2" viewBox="0 0 24 24" id="trash" xmlns="http://www.w3.org/2000/svg"><path d="M10 11v6M14 11v6M19 6v14a2 2 0 01-2 2H7a2 2 0 01-2-2V6M3 6h18M8 6V4a2 2 0 012-2h4a2 2 0 012 2v2"/></symbol><symbol fill="none" stroke="currentColor" stroke-width="2" stroke-linecap="round" stroke-linejoin="round" class="bblucide bblucide-upload-icon bblucide-upload" viewBox="0 0 24 24" id="upload" xmlns="http://www.w3.org/2000/svg"><path d="M12 3v12M17 8l-5-5-5 5M21 15v4a2 2 0 01-2 2H5a2 2 0 01-2-2v-4"/></symbol><symbol viewBox="0 0 56 56" fill-rule="evenodd" clip-rule="evenodd" stroke-linecap="round" stroke-linejoin="round" id="win" xmlns="http://www.w3.org/2000/svg"><g fill="none" stroke="#000" stroke-width="2"><path d="M13.533 26.367L4.667 51.333l24.966-8.843M9.333 7h.024M51.333 18.667h.024M35 4.667h.023M51.333 46.667h.024M51.333 4.667l-5.226 1.75a6.788 6.788 0 00-4.574 7.28c.234 2.006-1.33 3.803-3.383 3.803h-.887c-2.006 0-3.733 1.4-4.106 3.36l-.49 2.473M51.333 30.333l-1.913-.77c-2.007-.793-4.247.467-4.62 2.59A3.384 3.384 0 0141.463 35h-1.796M25.667 4.667l.77 1.913c.793 2.007-.467 4.247-2.59 4.62-1.634.233-2.847 1.68-2.847 3.337v1.796" stroke-width="4.66666"/><path d="M25.667 30.333c4.503 4.504 6.603 9.73 4.666 11.667-1.936 1.937-7.163-.163-11.666-4.667-4.504-4.503-6.604-9.73-4.667-11.666 1.937-1.937 7.163.163 11.667 4.666z" stroke-width="4.66666"/></g></symbol></svg>