<?xml version="1.0" encoding="utf-8"?><svg xmlns="http://www.w3.org/2000/svg" xmlns:xlink="http://www.w3.org/1999/xlink"><symbol fill="none" viewBox="0 0 24 24" id="arrow-back" xmlns="http://www.w3.org/2000/svg"><path d="M7.825 13l5.6 5.6L12 20l-8-8 8-8 1.425 1.4-5.6 5.6H20v2H7.825z" fill="#333"/></symbol><symbol fill="none" viewBox="0 0 24 24" id="check" xmlns="http://www.w3.org/2000/svg"><path d="M9.55 18l-5.7-5.7 1.425-1.425L9.55 15.15l9.175-9.175L20.15 7.4 9.55 18z" fill="#333"/></symbol><symbol fill="none" viewBox="0 0 24 24" id="close" xmlns="http://www.w3.org/2000/svg"><path d="M6.4 19L5 17.6l5.6-5.6L5 6.4 6.4 5l5.6 5.6L17.6 5 19 6.4 13.4 12l5.6 5.6-1.4 1.4-5.6-5.6L6.4 19z" fill="#333"/></symbol><symbol fill="none" viewBox="0 0 24 24" id="delete" xmlns="http://www.w3.org/2000/svg"><path d="M7 21c-.55 0-1.02-.196-1.412-.587A1.926 1.926 0 015 19V6H4V4h5V3h6v1h5v2h-1v13c0 .55-.196 1.02-.587 1.413A1.926 1.926 0 0117 21H7zM17 6H7v13h10V6zM9 17h2V8H9v9zm4 0h2V8h-2v9z" fill="#333"/></symbol><symbol fill="none" viewBox="0 0 24 24" id="download" xmlns="http://www.w3.org/2000/svg"><path d="M12 16l-5-5 1.4-1.45 2.6 2.6V4h2v8.15l2.6-2.6L17 11l-5 5zm-6 4c-.55 0-1.02-.196-1.412-.587A1.926 1.926 0 014 18v-3h2v3h12v-3h2v3c0 .55-.196 1.02-.587 1.413A1.926 1.926 0 0118 20H6z" fill="#333"/></symbol><symbol fill="none" viewBox="0 0 24 24" id="menu" xmlns="http://www.w3.org/2000/svg"><path d="M3 18v-2h18v2H3zm0-5v-2h18v2H3zm0-5V6h18v2H3z" fill="#333"/></symbol><symbol fill="none" viewBox="0 0 24 24" id="menu-open" xmlns="http://www.w3.org/2000/svg"><path d="M3 18v-2h13v2H3zm16.6-1l-5-5 5-5L21 8.4 17.4 12l3.6 3.6-1.4 1.4zM3 13v-2h10v2H3zm0-5V6h13v2H3z" fill="#333"/></symbol><symbol fill="none" viewBox="0 0 24 24" id="settings" xmlns="http://www.w3.org/2000/svg"><path d="M9.25 22l-.4-3.2a3.79 3.79 0 01-.613-.3 8.266 8.266 0 01-.562-.375L4.7 19.375l-2.75-4.75 2.575-1.95a2.387 2.387 0 01-.025-.338v-.675c0-.108.008-.22.025-.337L1.95 9.375l2.75-4.75 2.975 1.25c.183-.133.375-.258.575-.375.2-.117.4-.217.6-.3l.4-3.2h5.5l.4 3.2c.217.083.42.183.612.3.192.117.38.242.563.375l2.975-1.25 2.75 4.75-2.575 1.95c.017.117.025.23.025.338v.675c0 .108-.017.22-.05.337l2.575 1.95-2.75 4.75-2.95-1.25a6.842 6.842 0 01-.575.375c-.2.117-.4.217-.6.3l-.4 3.2h-5.5zM11 20h1.975l.35-2.65c.517-.133.996-.33 1.438-.588.441-.258.845-.57 1.212-.937l2.475 1.025.975-1.7-2.15-1.625c.083-.233.142-.48.175-.738a6.153 6.153 0 000-1.575 3.535 3.535 0 00-.175-.737l2.15-1.625-.975-1.7-2.475 1.05a5.556 5.556 0 00-1.213-.962 5.607 5.607 0 00-1.437-.588L13 4h-1.975l-.35 2.65c-.517.133-.996.33-1.438.587-.441.259-.845.571-1.212.938L5.55 7.15l-.975 1.7 2.15 1.6c-.083.25-.142.5-.175.75s-.05.517-.05.8c0 .267.017.525.05.775s.092.5.175.75l-2.15 1.625.975 1.7 2.475-1.05c.367.383.77.704 1.212.962.442.259.921.455 1.438.588L11 20zm1.05-4.5c.967 0 1.792-.342 2.475-1.025A3.372 3.372 0 0015.55 12c0-.967-.342-1.792-1.025-2.475A3.373 3.373 0 0012.05 8.5c-.983 0-1.813.342-2.488 1.025A3.393 3.393 0 008.55 12c0 .967.337 1.792 1.012 2.475.676.683 1.505 1.025 2.488 1.025z" fill="#333"/></symbol><symbol fill="none" viewBox="0 0 24 24" id="upload" xmlns="http://www.w3.org/2000/svg"><path d="M11 16V7.85l-2.6 2.6L7 9l5-5 5 5-1.4 1.45-2.6-2.6V16h-2zm-5 4c-.55 0-1.02-.196-1.412-.587A1.926 1.926 0 014 18v-3h2v3h12v-3h2v3c0 .55-.196 1.02-.587 1.413A1.926 1.926 0 0118 20H6z" fill="#333"/></symbol></svg>