<svg width="208" height="208" viewBox="0 0 208 208" fill="none" xmlns="http://www.w3.org/2000/svg">
<rect x="0.5" y="0.5" width="207" height="207" stroke="white"/>
<path d="M168.4 103.72C168.4 107.9 167.801 111.548 166.604 114.664C165.407 117.761 163.631 120.174 161.275 121.903C158.938 123.613 156.04 124.468 152.582 124.468C149.143 124.468 146.246 123.632 143.89 121.96C141.534 120.269 139.757 117.875 138.56 114.778C137.363 111.681 136.765 107.995 136.765 103.72C136.765 99.5395 137.363 95.901 138.56 92.804C139.757 89.707 141.534 87.3035 143.89 85.5935C146.246 83.8645 149.143 83 152.582 83C156.04 83 158.938 83.836 161.275 85.508C163.631 87.18 165.407 89.5645 166.604 92.6615C167.801 95.7585 168.4 99.4445 168.4 103.72ZM158.824 103.72C158.824 98.8555 158.339 95.3215 157.37 93.1175C156.401 90.9135 154.805 89.8115 152.582 89.8115C150.359 89.8115 148.763 90.923 147.794 93.146C146.825 95.35 146.341 98.8745 146.341 103.72C146.341 108.584 146.835 112.118 147.823 114.322C148.811 116.526 150.397 117.628 152.582 117.628C154.862 117.628 156.468 116.516 157.399 114.293C158.349 112.051 158.824 108.527 158.824 103.72Z" fill="white"/>
<path d="M120.108 124.468C116.365 124.468 113.211 123.679 110.646 122.102C108.081 120.506 106.133 118.169 104.803 115.091C103.492 111.994 102.837 108.185 102.837 103.663C102.837 100.3 103.302 97.3355 104.233 94.7705C105.183 92.1865 106.494 90.03 108.166 88.301C109.838 86.553 111.786 85.2325 114.009 84.3395C116.232 83.4465 118.626 83 121.191 83C124.079 83 126.511 83.4465 128.487 84.3395C130.463 85.2325 132.22 86.4105 133.759 87.8735L128.857 92.9465C127.66 91.8825 126.511 91.094 125.409 90.581C124.307 90.068 123.053 89.8115 121.647 89.8115C120.317 89.8115 119.091 90.0775 117.97 90.6095C116.868 91.1225 115.899 91.9395 115.063 93.0605C114.246 94.1625 113.61 95.597 113.154 97.364C112.698 99.112 112.47 101.231 112.47 103.72C112.47 107.159 112.745 109.895 113.296 111.928C113.866 113.961 114.721 115.424 115.861 116.317C117.001 117.191 118.445 117.628 120.193 117.628C121.124 117.628 121.998 117.523 122.815 117.314C123.632 117.086 124.392 116.792 125.095 116.431V107.396H120.136L119.224 100.841H133.93V120.478C131.954 121.694 129.826 122.663 127.546 123.385C125.285 124.107 122.806 124.468 120.108 124.468Z" fill="white"/>
<path d="M100.544 103.72C100.544 107.9 99.9457 111.548 98.7487 114.664C97.5517 117.761 95.7752 120.174 93.4192 121.903C91.0822 123.613 88.1847 124.468 84.7267 124.468C81.2877 124.468 78.3902 123.632 76.0342 121.96C73.6782 120.269 71.9017 117.875 70.7047 114.778C69.5077 111.681 68.9092 107.995 68.9092 103.72C68.9092 99.5395 69.5077 95.901 70.7047 92.804C71.9017 89.707 73.6782 87.3035 76.0342 85.5935C78.3902 83.8645 81.2877 83 84.7267 83C88.1847 83 91.0822 83.836 93.4192 85.508C95.7752 87.18 97.5517 89.5645 98.7487 92.6615C99.9457 95.7585 100.544 99.4445 100.544 103.72ZM90.9682 103.72C90.9682 98.8555 90.4837 95.3215 89.5147 93.1175C88.5457 90.9135 86.9497 89.8115 84.7267 89.8115C82.5037 89.8115 80.9077 90.923 79.9387 93.146C78.9697 95.35 78.4852 98.8745 78.4852 103.72C78.4852 108.584 78.9792 112.118 79.9672 114.322C80.9552 116.526 82.5417 117.628 84.7267 117.628C87.0067 117.628 88.6122 116.516 89.5432 114.293C90.4932 112.051 90.9682 108.527 90.9682 103.72Z" fill="white"/>
<path d="M39 123.499V83.9975H48.348V116.117H65.4765L64.5075 123.499H39Z" fill="white"/>
</svg>
