<?xml version="1.0" encoding="utf-8"?><svg xmlns="http://www.w3.org/2000/svg" xmlns:xlink="http://www.w3.org/1999/xlink"><symbol viewBox="0 0 24 24" id="arrow-down" xmlns="http://www.w3.org/2000/svg"><path fill-rule="evenodd" clip-rule="evenodd" d="M12 19.5a.5.5 0 01-.5-.5V5a.5.5 0 011 0v14a.5.5 0 01-.5.5z"/><path fill-rule="evenodd" clip-rule="evenodd" d="M4.646 11.646a.5.5 0 01.708 0L12 18.293l6.646-6.647a.5.5 0 01.708.708l-7 7a.5.5 0 01-.708 0l-7-7a.5.5 0 010-.708z"/></symbol><symbol viewBox="0 0 24 24" id="arrow-left" xmlns="http://www.w3.org/2000/svg"><path fill-rule="evenodd" clip-rule="evenodd" d="M4.5 12a.5.5 0 01.5-.5h14a.5.5 0 010 1H5a.5.5 0 01-.5-.5z"/><path fill-rule="evenodd" clip-rule="evenodd" d="M12.354 4.646a.5.5 0 010 .708L5.707 12l6.647 6.646a.5.5 0 01-.708.708l-7-7a.5.5 0 010-.708l7-7a.5.5 0 01.708 0z"/></symbol><symbol viewBox="0 0 24 24" id="arrow-right" xmlns="http://www.w3.org/2000/svg"><path fill-rule="evenodd" clip-rule="evenodd" d="M19.5 12a.5.5 0 00-.5-.5H5a.5.5 0 000 1h14a.5.5 0 00.5-.5z"/><path fill-rule="evenodd" clip-rule="evenodd" d="M11.646 4.646a.5.5 0 000 .708L18.293 12l-6.647 6.646a.5.5 0 00.708.708l7-7a.5.5 0 000-.708l-7-7a.5.5 0 00-.708 0z"/></symbol><symbol viewBox="0 0 24 24" id="arrow-up" xmlns="http://www.w3.org/2000/svg"><path fill-rule="evenodd" clip-rule="evenodd" d="M12 4.5a.5.5 0 01.5.5v14a.5.5 0 01-1 0V5a.5.5 0 01.5-.5z"/><path fill-rule="evenodd" clip-rule="evenodd" d="M19.354 12.354a.5.5 0 01-.708 0L12 5.707l-6.646 6.647a.5.5 0 01-.708-.708l7-7a.5.5 0 01.708 0l7 7a.5.5 0 010 .708z"/></symbol><symbol fill="none" stroke="currentColor" stroke-width="2" stroke-linecap="round" stroke-linejoin="round" class="elucide elucide-cross-icon elucide-cross" viewBox="0 0 24 24" id="cross" xmlns="http://www.w3.org/2000/svg"><path d="M4 9a2 2 0 00-2 2v2a2 2 0 002 2h4a1 1 0 011 1v4a2 2 0 002 2h2a2 2 0 002-2v-4a1 1 0 011-1h4a2 2 0 002-2v-2a2 2 0 00-2-2h-4a1 1 0 01-1-1V4a2 2 0 00-2-2h-2a2 2 0 00-2 2v4a1 1 0 01-1 1z"/></symbol></svg>